<svg width="25" height="25" viewBox="0 0 25 25" fill="none" xmlns="http://www.w3.org/2000/svg">
<path d="M4.9257 17.0939C3.80751 15.2089 3.41591 12.9805 3.82443 10.8272C4.23296 8.6739 5.4135 6.7438 7.14439 5.39933C8.87527 4.05486 11.0374 3.3885 13.2249 3.52539C15.4123 3.66227 17.4745 4.59298 19.0243 6.14274C20.5741 7.69251 21.5048 9.75472 21.6417 11.9421C21.7786 14.1296 21.1122 16.2917 19.7677 18.0226C18.4233 19.7535 16.4932 20.9341 14.3399 21.3426C12.1866 21.7511 9.95824 21.3596 8.07323 20.2414L8.07326 20.2413L4.96483 21.1294C4.83622 21.1662 4.70013 21.1678 4.57065 21.1343C4.44118 21.1007 4.32303 21.0332 4.22845 20.9386C4.13387 20.844 4.06631 20.7259 4.03276 20.5964C3.99921 20.4669 4.00089 20.3308 4.03764 20.2022L4.92576 17.0938L4.9257 17.0939Z" stroke="#DEDEDE" stroke-width="2" stroke-linecap="round" stroke-linejoin="round"/>
<path d="M8.16675 13.6289C8.78807 13.6289 9.29175 13.1252 9.29175 12.5039C9.29175 11.8826 8.78807 11.3789 8.16675 11.3789C7.54543 11.3789 7.04175 11.8826 7.04175 12.5039C7.04175 13.1252 7.54543 13.6289 8.16675 13.6289Z" fill="#DEDEDE"/>
<path d="M12.6667 13.6289C13.2881 13.6289 13.7917 13.1252 13.7917 12.5039C13.7917 11.8826 13.2881 11.3789 12.6667 11.3789C12.0454 11.3789 11.5417 11.8826 11.5417 12.5039C11.5417 13.1252 12.0454 13.6289 12.6667 13.6289Z" fill="#DEDEDE"/>
<path d="M17.1667 13.6289C17.7881 13.6289 18.2917 13.1252 18.2917 12.5039C18.2917 11.8826 17.7881 11.3789 17.1667 11.3789C16.5454 11.3789 16.0417 11.8826 16.0417 12.5039C16.0417 13.1252 16.5454 13.6289 17.1667 13.6289Z" fill="#DEDEDE"/>
</svg>
