<svg width="25" height="25" viewBox="0 0 25 25" fill="none" xmlns="http://www.w3.org/2000/svg">
<path d="M5.60229 10.2499C5.60105 9.36045 5.77587 8.47951 6.11668 7.6579C6.45749 6.83628 6.95755 6.09025 7.58803 5.4628C8.2185 4.83535 8.96694 4.33889 9.79018 4.00204C10.6134 3.66519 11.4952 3.49461 12.3847 3.50013C16.0962 3.52772 19.065 6.61275 19.065 10.3347V10.9999C19.065 14.3577 19.7675 16.3061 20.3862 17.371C20.4528 17.4848 20.4883 17.6142 20.489 17.746C20.4897 17.8779 20.4556 18.0076 20.3902 18.1221C20.3248 18.2366 20.2303 18.3318 20.1163 18.3982C20.0024 18.4645 19.8729 18.4996 19.741 18.4999H4.92547C4.79359 18.4996 4.66412 18.4645 4.55014 18.3981C4.43616 18.3318 4.34169 18.2366 4.27626 18.122C4.21084 18.0075 4.17677 17.8778 4.1775 17.7459C4.17823 17.614 4.21373 17.4846 4.28041 17.3709C4.89947 16.3059 5.60229 14.3575 5.60229 10.9999L5.60229 10.2499Z" stroke="#DEDEDE" stroke-width="2" stroke-linecap="round" stroke-linejoin="round"/>
<path d="M9.33325 18.5V19.25C9.33325 20.0456 9.64932 20.8087 10.2119 21.3713C10.7745 21.9339 11.5376 22.25 12.3333 22.25C13.1289 22.25 13.892 21.9339 14.4546 21.3713C15.0172 20.8087 15.3333 20.0456 15.3333 19.25V18.5" stroke="#DEDEDE" stroke-width="2" stroke-linecap="round" stroke-linejoin="round"/>
</svg>
